<svg width="29" height="32" viewBox="0 0 29 32" fill="none" xmlns="http://www.w3.org/2000/svg">
<path d="M0 15.264L11.7861 0L25.0455 15.264H0Z" fill="#C4C4C4"/>
<rect y="6.36011" width="29" height="25.44" fill="#C4C4C4"/>
<path d="M9.80741 17.8801C9.74874 17.6348 9.64207 17.4508 9.48741 17.3281C9.33274 17.2054 9.11674 17.1441 8.83941 17.1441C8.41807 17.1441 8.10341 17.3068 7.89541 17.6321C7.68741 17.9521 7.57807 18.4854 7.56741 19.2321C7.70607 18.9974 7.90874 18.8161 8.17541 18.6881C8.44207 18.5601 8.73007 18.4961 9.03941 18.4961C9.39141 18.4961 9.70074 18.5734 9.96741 18.7281C10.2394 18.8774 10.4501 19.0961 10.5994 19.3841C10.7541 19.6721 10.8314 20.0161 10.8314 20.4161C10.8314 20.7894 10.7567 21.1228 10.6074 21.4161C10.4634 21.7094 10.2474 21.9414 9.95941 22.1121C9.67141 22.2774 9.32474 22.3601 8.91941 22.3601C8.37007 22.3601 7.93807 22.2401 7.62341 22.0001C7.31407 21.7548 7.09541 21.4108 6.96741 20.9681C6.84474 20.5254 6.78341 19.9734 6.78341 19.3121C6.78341 17.3601 7.47141 16.3841 8.84741 16.3841C9.38074 16.3841 9.79941 16.5281 10.1034 16.8161C10.4127 17.1041 10.5941 17.4588 10.6474 17.8801H9.80741ZM8.83941 19.2641C8.51407 19.2641 8.23674 19.3628 8.00741 19.5601C7.78341 19.7521 7.67141 20.0321 7.67141 20.4001C7.67141 20.7681 7.77541 21.0614 7.98341 21.2801C8.19674 21.4934 8.49274 21.6001 8.87141 21.6001C9.20741 21.6001 9.47141 21.4961 9.66341 21.2881C9.86074 21.0801 9.95941 20.8028 9.95941 20.4561C9.95941 20.0934 9.86341 19.8054 9.67141 19.5921C9.48474 19.3734 9.20741 19.2641 8.83941 19.2641ZM14.9402 17.8801C14.8816 17.6348 14.7749 17.4508 14.6202 17.3281C14.4656 17.2054 14.2496 17.1441 13.9722 17.1441C13.5509 17.1441 13.2362 17.3068 13.0282 17.6321C12.8202 17.9521 12.7109 18.4854 12.7002 19.2321C12.8389 18.9974 13.0416 18.8161 13.3082 18.6881C13.5749 18.5601 13.8629 18.4961 14.1722 18.4961C14.5242 18.4961 14.8336 18.5734 15.1002 18.7281C15.3722 18.8774 15.5829 19.0961 15.7322 19.3841C15.8869 19.6721 15.9642 20.0161 15.9642 20.4161C15.9642 20.7894 15.8896 21.1228 15.7402 21.4161C15.5962 21.7094 15.3802 21.9414 15.0922 22.1121C14.8042 22.2774 14.4576 22.3601 14.0522 22.3601C13.5029 22.3601 13.0709 22.2401 12.7562 22.0001C12.4469 21.7548 12.2282 21.4108 12.1002 20.9681C11.9776 20.5254 11.9162 19.9734 11.9162 19.3121C11.9162 17.3601 12.6042 16.3841 13.9802 16.3841C14.5136 16.3841 14.9322 16.5281 15.2362 16.8161C15.5456 17.1041 15.7269 17.4588 15.7802 17.8801H14.9402ZM13.9722 19.2641C13.6469 19.2641 13.3696 19.3628 13.1402 19.5601C12.9162 19.7521 12.8042 20.0321 12.8042 20.4001C12.8042 20.7681 12.9082 21.0614 13.1162 21.2801C13.3296 21.4934 13.6256 21.6001 14.0042 21.6001C14.3402 21.6001 14.6042 21.4961 14.7962 21.2881C14.9936 21.0801 15.0922 20.8028 15.0922 20.4561C15.0922 20.0934 14.9962 19.8054 14.8042 19.5921C14.6176 19.3734 14.3402 19.2641 13.9722 19.2641ZM16.793 17.9361C16.793 17.5468 16.905 17.2428 17.129 17.0241C17.3584 16.8001 17.6517 16.6881 18.009 16.6881C18.3664 16.6881 18.657 16.8001 18.881 17.0241C19.1104 17.2428 19.225 17.5468 19.225 17.9361C19.225 18.3254 19.1104 18.6321 18.881 18.8561C18.657 19.0801 18.3664 19.1921 18.009 19.1921C17.6517 19.1921 17.3584 19.0801 17.129 18.8561C16.905 18.6321 16.793 18.3254 16.793 17.9361ZM21.673 16.7921L18.481 22.3601H17.585L20.777 16.7921H21.673ZM18.009 17.2401C17.673 17.2401 17.505 17.4721 17.505 17.9361C17.505 18.4054 17.673 18.6401 18.009 18.6401C18.169 18.6401 18.2917 18.5841 18.377 18.4721C18.4677 18.3548 18.513 18.1761 18.513 17.9361C18.513 17.4721 18.345 17.2401 18.009 17.2401ZM20.049 21.2081C20.049 20.8188 20.161 20.5148 20.385 20.2961C20.6144 20.0721 20.9077 19.9601 21.265 19.9601C21.617 19.9601 21.905 20.0721 22.129 20.2961C22.3584 20.5148 22.473 20.8188 22.473 21.2081C22.473 21.5974 22.3584 21.9041 22.129 22.1281C21.905 22.3521 21.617 22.4641 21.265 22.4641C20.9077 22.4641 20.6144 22.3521 20.385 22.1281C20.161 21.9041 20.049 21.5974 20.049 21.2081ZM21.257 20.5121C20.921 20.5121 20.753 20.7441 20.753 21.2081C20.753 21.6721 20.921 21.9041 21.257 21.9041C21.593 21.9041 21.761 21.6721 21.761 21.2081C21.761 20.7441 21.593 20.5121 21.257 20.5121Z" fill="black"/>
</svg>
