<svg width="287" height="24" viewBox="0 0 287 24" fill="none" xmlns="http://www.w3.org/2000/svg">
<path d="M2 10.6402C15.9838 10.4147 29.295 8.46957 43.1469 7.22552C73.0682 4.53826 103.448 2.77313 133.585 2.12984C143.121 1.92628 154.657 2.7925 159 4.50001C165 6.85877 164.783 13.7836 160 17.2432C156.145 20.0319 149.308 22.0001 143 22.0001C137.991 22.0001 137 19.4054 137 18.1081C137 7.72938 165.141 8.84767 171.262 8.74897C185.061 8.52645 198.791 7.88977 212.5 7.29694C222.5 6.8645 231.117 6.51946 240.5 5.99961C246 5.69488 285 2.42197 285 6.85779" stroke="#B1CE5E" stroke-width="3" stroke-linecap="round" stroke-linejoin="round"/>
</svg>
